<svg xmlns="http://www.w3.org/2000/svg" viewBox="0 0 363.33 184.81"><defs><style>.cls-1{fill:none;}.cls-2{fill:#0c1a23;}.cls-3{fill:#bfd9da;}.cls-4{fill:#15a2d6;}.cls-5{fill:#fff;}</style></defs><title>Asset 1</title><g id="Layer_2" data-name="Layer 2"><g id="Layer_1-2" data-name="Layer 1"><path class="cls-1" d="M159.27,144.62H143.78v8.88q7.59-.19,15.49-.32Z"/><path class="cls-2" d="M332.48,168.91c0-4.78-20-9.06-51.77-12V144.62h77.2l2.26-6.63a60.49,60.49,0,0,0-79.46-75.63V9l-90-9L81,8.82v96.24L0,144.62H81V157c-31.34,2.91-51.12,7.17-51.12,11.91,0,8.78,67.73,15.9,151.28,15.9S332.48,177.69,332.48,168.91Zm-237.67-30H130v21.26a18,18,0,0,1-6.3,2.17,57,57,0,0,1-11.31,1c-9.68,0-16-2-17.59-3.21Zm-8-21.3v13.26H59.59ZM241.19,89.71h24.92l1.21-1.41A46.73,46.73,0,0,1,348,130.85H242.83c-1.8-1.43-5.53-6.25-5.53-21.6C237.3,97.77,239.38,92.3,241.19,89.71ZM205,21.1c-1.58,0-2.57,1.14-2.71,3.08L197,24.1c0-5.14,2.8-8.7,7.92-8.62a8,8,0,0,1,8.32,8.08c0,2.58-1.37,4.65-4.52,9l-3,4.14,7.87.82,0,5.27-16-1,0-3,6.73-9.44c2-2.67,3.16-4,3.14-5.62A2.42,2.42,0,0,0,205,21.1Zm55.63,117.79h6.3v21.26a18,18,0,0,1-6.3,2.17,56.73,56.73,0,0,1-11.29,1c-9.7,0-16-2-17.6-3.21V138.89Zm-58.72,0h6.3v21.26c-.85.65-3,1.51-6.3,2.18a57.59,57.59,0,0,1-11.29,1c-9.7,0-16-2-17.59-3.21V138.89h28.88ZM94.81,21.53l91.8-7.39V130.85H94.81V21.53Zm49,123.09h15.49v8.56q-7.89.12-15.49.32Z"/><path class="cls-3" d="M231.75,160.15c1.62,1.23,7.9,3.21,17.6,3.21a56.73,56.73,0,0,0,11.29-1V138.89H231.75Z"/><path class="cls-3" d="M242.83,130.85H337c6.73-55.34-34.17-58.92-34.17-58.92A46.67,46.67,0,0,0,267.32,88.3l-1.21,1.41H241.19c-1.81,2.59-3.89,8.06-3.89,19.54C237.3,124.6,241,129.42,242.83,130.85Zm40.92-44.34a5.73,5.73,0,1,0,7.13-4.19,13.21,13.21,0,0,1,2.45-.24,12.66,12.66,0,1,1-9.58,4.43Z"/><path class="cls-3" d="M197.61,38.75l0,3,16,1,0-5.27-7.87-.82,3-4.14c3.15-4.36,4.55-6.43,4.52-9a8,8,0,0,0-8.32-8.08C199.79,15.4,197,19,197,24.1l5.31.08c.14-1.94,1.13-3.1,2.71-3.08a2.42,2.42,0,0,1,2.47,2.59c0,1.6-1.18,2.95-3.14,5.62Z"/><polygon class="cls-3" points="86.78 117.59 59.59 130.85 86.78 130.85 86.78 117.59"/><path class="cls-3" d="M173,138.89v21.26c1.62,1.23,7.89,3.21,17.59,3.21a57.59,57.59,0,0,0,11.29-1V138.89H173Z"/><path class="cls-3" d="M123.71,162.32V138.89H94.81v21.26c1.63,1.23,7.91,3.21,17.59,3.21A57,57,0,0,0,123.71,162.32Z"/><path class="cls-4" d="M94.81,130.85h91.8V14.14l-91.8,7.39V130.85ZM171.89,21.26a4.8,4.8,0,0,1,5,4.59V121.1a5,5,0,0,1-10,0V25.85A4.8,4.8,0,0,1,171.89,21.26Zm-21.49,2.3a4.75,4.75,0,0,1,5,4.49V121.2a5,5,0,0,1-9.95,0V28.05A4.75,4.75,0,0,1,150.4,23.56Zm-21.48,1.92c2.75,0,5,2,5,4.39v91.42a5,5,0,0,1-10,0V29.87A4.71,4.71,0,0,1,128.92,25.48Zm-21.49,2.29c2.75,0,5,1.92,5,4.29v89.33c0,2.37-2.22,4.3-5,4.3s-5-1.93-5-4.3V32.06C102.46,29.69,104.69,27.77,107.43,27.77Z"/><path class="cls-5" d="M337,130.85H348a46.74,46.74,0,0,0-45.12-58.92S343.73,75.51,337,130.85Z"/><path class="cls-5" d="M260.64,162.32a18,18,0,0,0,6.3-2.17V138.89h-6.3Z"/><path class="cls-5" d="M201.92,162.33c3.28-.67,5.45-1.53,6.3-2.18V138.89h-6.3Z"/><path class="cls-5" d="M123.71,162.32a18,18,0,0,0,6.3-2.17V138.89h-6.3Z"/><path class="cls-2" d="M293.33,107.33a12.63,12.63,0,1,0,0-25.25,13.21,13.21,0,0,0-2.45.24,5.79,5.79,0,1,1-7.13,4.19,12.61,12.61,0,0,0,9.58,20.82Z"/><path class="cls-2" d="M166.91,121.1a5,5,0,0,0,10,0V25.85a5,5,0,0,0-10,0Z"/><path class="cls-2" d="M145.43,121.2a5,5,0,0,0,9.95,0V28.05a5,5,0,0,0-9.95,0Z"/><path class="cls-2" d="M124,121.29a5,5,0,0,0,10,0V29.87c0-2.42-2.23-4.39-5-4.39a4.71,4.71,0,0,0-5,4.39Z"/><path class="cls-2" d="M102.46,121.39c0,2.37,2.23,4.3,5,4.3s5-1.93,5-4.3V32.06c0-2.37-2.22-4.29-5-4.29s-5,1.92-5,4.29Z"/></g></g></svg>