<svg id="Layer_1" data-name="Layer 1" xmlns="http://www.w3.org/2000/svg" viewBox="0 0 352.54 350.93"><defs><style>.cls-1{fill:#fff;fill-rule:evenodd;}</style></defs><title>logo</title><path class="cls-1" d="M339.43,270.8V237.16L368.56,254,409,277.32v80.32l-29.13-16.82-40.43-23.34V270.8h0ZM409,370.7l11.31,6.53V270.8l-46.09-26.61-34.78-20.08-11.31-6.53V324l46.09,26.61Z" transform="translate(-244.67 -67.75)"/><path class="cls-1" d="M501.81,222.82l11.31-6.53-11.31-6.53L467,189.68l-46.09-26.61-46.09,26.61-34.78,20.08-11.31,6.53,11.31,6.53,34.78,20.08,46.09,26.61L467,242.9l34.78-20.08h0Zm-150.43-6.53,29.13-16.82,40.43-23.34,40.43,23.35,29.13,16.82L461.38,233.1l-40.43,23.34L380.51,233.1Z" transform="translate(-244.67 -67.75)"/><path class="cls-1" d="M432.9,324V277.32L473.33,254l29.13-16.82v80.32L462,340.83,432.9,357.65V324h0Zm69.56-99.91-34.78,20.08L421.59,270.8V377.23l11.31-6.53,34.78-20.08L513.77,324V217.58Z" transform="translate(-244.67 -67.75)"/><polygon class="cls-1" points="135.84 36.4 176.27 13.06 216.71 36.4 245.83 53.22 245.83 79.68 222.36 66.13 176.27 39.52 130.18 66.13 95.4 86.21 95.4 93.38 95.4 99.26 95.4 125.72 95.4 138.78 130.18 118.7 176.27 92.09 216.71 115.43 257.14 138.78 257.14 125.72 222.36 105.64 176.27 79.03 130.18 105.64 95.4 125.72 106.71 119.19 106.71 92.73 95.4 99.26 130.18 79.18 176.27 52.57 216.71 75.92 245.83 92.73 257.14 99.26 257.14 59.75 257.14 46.69 222.36 26.61 176.27 0 135.84 23.34 130.18 26.61 95.4 46.69 95.4 59.75 135.84 36.4"/><path class="cls-1" d="M256,285.14l40.43-23.34,17.17-9.92v80l46.09,26.61,35.1,20.27-11.31-6.53L343,395.52l-28.8,16.63,11.31-6.53-29.13-16.82L256,365.47V285.14h0Zm57.61-46.32L290.76,252,256,272.09l-11.31,6.53V372l40.43,23.34,5.65,3.26,23.47,13.55,11.31,6.53,23.15-13.37,17.28-10,28.8-16.63,11.31-6.53-0.32-.19L371,351.91,324.9,325.3v-93Z" transform="translate(-244.67 -67.75)"/><path class="cls-1" d="M580.8,368.42l-24,13.86-40.43,23.34-40.43-23.34-17.5-10.1,23.8-13.74L522.86,335l28.43,16.42,29.5,17h0Zm-52.5-43.37L557,341.59l29,16.72V285.14L545.47,261.8l-17.17-9.92v73.17h0Zm59.93,52.13V366l9-5.19v-82.2l-27.36-15.8-13.07-7.55-2.48-1.43L551.13,252,517,232.3v93L470.9,351.91,436.12,372l-0.32.19,11.31,6.53,23.15,13.37,46.09,26.61,40.43-23.34,5.65-3.26,25.8-14.89h0ZM528.3,225.77l-8.78-5.07h0Z" transform="translate(-244.67 -67.75)"/></svg>